Coordinates
version=1
nRows=14
nColumns=24
inDegrees=yes

Units are S.I. units (second, meters, Newtons, ...)
If the header above contains a line with 'inDegrees', this indicates whether rotational values are in degrees (yes) or radians (no).

endheader
time	pelvis_tilt	pelvis_list	pelvis_rotation	pelvis_tx	pelvis_ty	pelvis_tz	hip_flexion_r	hip_adduction_r	hip_rotation_r	knee_angle_r	ankle_angle_r	subtalar_angle_r	mtp_angle_r	hip_flexion_l	hip_adduction_l	hip_rotation_l	knee_angle_l	ankle_angle_l	subtalar_angle_l	mtp_angle_l	lumbar_extension	lumbar_bending	lumbar_rotation
      1.67000000	     10.71853560	      2.04766088	   -180.61875071	      0.22766839	      0.84686616	     -1.20459109	     19.50307347	    -11.96267953	    -29.82373615	    -16.28326866	      0.77987378	      8.67351942	      0.00000000	     20.68196249	    -17.14228493	    -26.60119191	    -18.73875123	      2.24881258	      8.10714149	      0.00000000	     -0.38759104	      1.81989447	     -0.44071486
      1.67500000	     10.73552268	      2.07858589	   -180.57836074	      0.22740840	      0.84692810	     -1.20449951	     19.43240504	    -11.91861080	    -29.91308748	    -16.15954670	      0.72461811	      8.66074389	      0.00000000	     20.67013793	    -17.14151597	    -26.56245263	    -18.68372897	      2.23534190	      8.08837176	      0.00000000	     -0.34701069	      1.85794788	     -0.45706076
      1.68000000	     10.73730103	      2.10513922	   -180.55505692	      0.22708790	      0.84701372	     -1.20439125	     19.34431689	    -11.87895401	    -30.01089905	    -16.03727043	      0.69670500	      8.68511110	      0.00000000	     20.61774645	    -17.13989529	    -26.55960038	    -18.60225125	      2.19569500	      8.07139177	      0.00000000	     -0.32239760	      1.89833208	     -0.46927503
      1.68500000	     10.65738368	      2.19082061	   -180.55773054	      0.22658596	      0.84720026	     -1.20443603	     19.12993005	    -11.75518470	    -30.15054023	    -15.86221220	      0.66925484	      8.78989110	      0.00000000	     20.45404746	    -17.21656189	    -26.59208553	    -18.50181071	      2.18963513	      8.07749107	      0.00000000	     -0.37320187	      1.98297822	     -0.45246553
      1.69000000	     10.72620223	      2.15318950	   -180.49299552	      0.22637841	      0.84717123	     -1.20422064	     19.11164718	    -11.79814978	    -30.25036127	    -15.73339836	      0.62044737	      8.83704728	      0.00000000	     20.48091762	    -17.12156328	    -26.57037029	    -18.39881912	      2.17273118	      8.12841087	      0.00000000	     -0.28237034	      1.94509079	     -0.50082710
      1.69500000	     10.77481403	      2.17514889	   -180.41715837	      0.22632768	      0.84724728	     -1.20430935	     19.05447355	    -11.74850847	    -30.34244694	    -15.56798893	      0.57438830	      8.88933829	      0.00000000	     20.51645902	    -17.10711775	    -26.53369452	    -18.30685590	      2.11121653	      8.14780018	      0.00000000	     -0.23603226	      1.93532946	     -0.56589161
      1.70000000	     10.78612354	      2.21102319	   -180.34199640	      0.22606929	      0.84729381	     -1.20433011	     18.94021482	    -11.69340018	    -30.49123672	    -15.38912488	      0.50779868	      8.95067159	      0.00000000	     20.49706274	    -17.11360496	    -26.53923415	    -18.23013314	      2.12925418	      8.20728770	      0.00000000	     -0.20529484	      1.95264967	     -0.65100047
      1.70500000	     10.83399610	      2.22465236	   -180.31649982	      0.22586368	      0.84734393	     -1.20434162	     18.90796169	    -11.65477398	    -30.55796828	    -15.26559166	      0.52953431	      8.95335337	      0.00000000	     20.49576902	    -17.10324528	    -26.57316885	    -18.13384504	      2.13462329	      8.21787652	      0.00000000	     -0.13697588	      1.94943157	     -0.64421770
      1.71000000	     10.87782101	      2.28014917	   -180.28627651	      0.22565075	      0.84741189	     -1.20430204	     18.85880983	    -11.58326810	    -30.70139680	    -15.12468623	      0.44505060	      9.01038790	      0.00000000	     20.49257690	    -17.13291610	    -26.58438688	    -18.02555922	      2.02597937	      8.29387613	      0.00000000	     -0.07626500	      2.01229984	     -0.66785267
      1.71500000	     10.89857675	      2.32673531	   -180.24331272	      0.22539922	      0.84749338	     -1.20424790	     18.78457557	    -11.54108813	    -30.95764429	    -15.00636913	      0.41947930	      9.18247461	      0.00000000	     20.48112908	    -17.16204896	    -26.62276954	    -17.95072712	      1.99973805	      8.37789193	      0.00000000	     -0.04453523	      2.06661737	     -0.72022030
      1.72000000	     10.94905614	      2.31566739	   -180.21922324	      0.22521230	      0.84751170	     -1.20421298	     18.75605182	    -11.53266841	    -31.02190347	    -14.87710677	      0.38003030	      9.23184929	      0.00000000	     20.46458964	    -17.11403168	    -26.63957894	    -17.81796761	      1.93748319	      8.42916369	      0.00000000	      0.02350316	      2.05083773	     -0.72091576
      1.72500000	     10.98298705	      2.31292107	   -180.17797405	      0.22502374	      0.84750249	     -1.20417091	     18.69681245	    -11.52118353	    -31.11434141	    -14.73454747	      0.29444754	      9.32250139	      0.00000000	     20.44658737	    -17.08722213	    -26.70762656	    -17.73357508	      1.94841863	      8.52743792	      0.00000000	      0.06484694	      2.03908450	     -0.77534615
      1.73000000	     11.02310461	      2.33067979	   -180.12817988	      0.22484151	      0.84751662	     -1.20416460	     18.65893890	    -11.49392910	    -31.23562497	    -14.63069574	      0.30250883	      9.38672000	      0.00000000	     20.44387028	    -17.08088067	    -26.74559716	    -17.62733015	      1.89807762	      8.65618652	      0.00000000	      0.11211057	      2.04221272	     -0.81160442
      1.73500000	     11.06940528	      2.33891927	   -180.11568703	      0.22463244	      0.84754036	     -1.20413354	     18.64267847	    -11.47434683	    -31.32533137	    -14.53662568	      0.26503408	      9.48718939	      0.00000000	     20.42800790	    -17.07439275	    -26.83711562	    -17.52418703	      1.86868944	      8.75002624	      0.00000000	      0.16902281	      2.04137110	     -0.79277575
